<svg width="126" height="26" viewBox="0 0 126 26" fill="none" xmlns="http://www.w3.org/2000/svg">
<path fill-rule="evenodd" clip-rule="evenodd" d="M74.4031 9.29284H51.6306V25.5546H56.0972V13.3115C56.0972 13.0632 56.2977 12.862 56.5453 12.862H62.5912C62.8387 12.862 63.0392 13.0632 63.0392 13.3115V25.5546H67.5294V13.3115C67.5294 13.0632 67.7299 12.862 67.9774 12.862H73.9359C74.1834 12.862 74.3839 13.0632 74.3839 13.3115V25.5546H78.8815V13.7852C78.8815 11.3041 76.8765 9.29284 74.4031 9.29284Z" fill="white"/>
<path fill-rule="evenodd" clip-rule="evenodd" d="M121.803 9.29284V21.5742C121.803 21.8221 121.602 22.0237 121.355 22.0237H110.601C110.354 22.0237 110.153 21.8221 110.153 21.5742V9.29284H105.922V21.0622C105.922 23.5433 107.927 25.5546 110.401 25.5546H121.522C123.995 25.5546 126 23.5433 126 21.0622V9.29284H121.803Z" fill="white"/>
<path fill-rule="evenodd" clip-rule="evenodd" d="M29.9843 19.2661C29.9843 19.0177 30.1848 18.8166 30.4318 18.8166H43.3736V22.0198H30.4318C30.1848 22.0198 29.9843 21.8187 29.9843 21.5708V19.2661ZM30.2663 25.5551H47.5708L47.5763 13.7704C47.5763 11.2888 45.5713 9.29284 43.0979 9.29284H26.9275L28.2461 12.7925H42.9315C43.1791 12.7925 43.3799 12.9936 43.3799 13.242L43.3741 15.3064H30.2663C27.7929 15.3064 25.7874 17.3177 25.7874 19.7988V21.0627C25.7874 23.5433 27.7929 25.5551 30.2663 25.5551Z" fill="white"/>
<path fill-rule="evenodd" clip-rule="evenodd" d="M97.6524 21.563C97.6524 21.8113 97.4525 22.0124 97.2049 22.0124H87.1312V12.8508H97.2049C97.4525 12.8508 97.6524 13.0514 97.6524 13.2998V21.563ZM97.6842 9.28159H87.1309V5.22372H87.0426H82.533V25.5439H87.1309H97.6842C100.158 25.5439 102.163 23.5326 102.163 21.0515V13.774C102.163 11.2929 100.158 9.28159 97.6842 9.28159Z" fill="white"/>
<path fill-rule="evenodd" clip-rule="evenodd" d="M0 1.77194V6.15809L4.5977 4.38566V0L0 1.77194Z" fill="white"/>
<path fill-rule="evenodd" clip-rule="evenodd" d="M15.0053 22.028H10.9402H4.59828V16.6243H11.1571H12.4685H15.0053C15.6188 16.6243 16.1822 16.8324 16.6348 17.1795C17.2793 17.6731 17.6966 18.4494 17.6966 19.3259C17.6966 20.8182 16.4916 22.028 15.0053 22.028ZM4.59828 8.01354H9.8164H14.3668C14.6553 8.01354 14.9307 8.07811 15.1865 8.18885C16.1125 8.55485 16.7693 9.45872 16.7693 10.5185C16.7693 10.5185 16.7495 10.8721 16.7139 11.0409C16.5791 11.8489 16.0439 12.4901 15.3194 12.791C15.001 12.939 14.6473 13.0234 14.2735 13.0234H9.37869H4.59828V8.01354ZM13.5929 4.39421H4.59828V8.01354L0 9.78351V25.5586H16.3064C16.3379 25.5591 16.3692 25.5636 16.401 25.5636C16.4331 25.5636 16.4638 25.5591 16.496 25.5586C19.7653 25.5075 22.4008 22.8367 22.4008 19.5451C22.4008 17.6882 21.5615 16.029 20.2438 14.925C20.2704 14.8917 20.2945 14.857 20.3198 14.8227C21.1195 13.7664 21.5988 12.4544 21.5988 11.0261C21.5988 8.33489 19.9116 6.04448 17.5429 5.1446C16.4564 4.6763 15.2161 4.41306 13.9225 4.39519C13.8754 4.39421 13.7091 4.39421 13.5929 4.39421Z" fill="white"/>
</svg>
